<svg width="72" height="72" viewBox="0 0 72 72" fill="none" xmlns="http://www.w3.org/2000/svg">
<circle cx="36" cy="36" r="35.5" fill="#FBFBFB" stroke="#F2F2F2"/>
<path d="M50.36 27.2727H23.96C23.6099 27.2727 23.2742 27.1338 23.0266 26.8866C22.7791 26.6394 22.64 26.3041 22.64 25.9545C22.64 25.6049 22.7791 25.2697 23.0266 25.0225C23.2742 24.7752 23.6099 24.6364 23.96 24.6364H46.4C46.7501 24.6364 47.0858 24.4975 47.3334 24.2503C47.5809 24.0031 47.72 23.6678 47.72 23.3182C47.72 22.9686 47.5809 22.6333 47.3334 22.3861C47.0858 22.1389 46.7501 22 46.4 22H23.96C22.9097 22 21.9025 22.4166 21.1599 23.1583C20.4172 23.8999 20 24.9057 20 25.9545V47.0455C20 48.0943 20.4172 49.1001 21.1599 49.8417C21.9025 50.5834 22.9097 51 23.96 51H50.36C51.0602 51 51.7317 50.7222 52.2268 50.2278C52.7219 49.7334 53 49.0628 53 48.3636V29.9091C53 29.2099 52.7219 28.5393 52.2268 28.0449C51.7317 27.5505 51.0602 27.2727 50.36 27.2727ZM50.36 48.3636H23.96C23.6099 48.3636 23.2742 48.2248 23.0266 47.9776C22.7791 47.7303 22.64 47.3951 22.64 47.0455V29.6834C23.0638 29.8335 23.5103 29.9099 23.96 29.9091H50.36V48.3636ZM42.44 38.4773C42.44 38.0862 42.5561 37.7039 42.7737 37.3788C42.9913 37.0536 43.3005 36.8002 43.6623 36.6505C44.0241 36.5009 44.4222 36.4617 44.8063 36.538C45.1904 36.6143 45.5432 36.8026 45.8201 37.0791C46.097 37.3557 46.2856 37.708 46.362 38.0915C46.4384 38.4751 46.3991 38.8726 46.2493 39.2339C46.0994 39.5952 45.8456 39.904 45.52 40.1213C45.1944 40.3386 44.8116 40.4545 44.42 40.4545C43.8949 40.4545 43.3913 40.2462 43.0199 39.8754C42.6486 39.5046 42.44 39.0017 42.44 38.4773Z" fill="#F2F2F2"/>
</svg>
