<svg width="17" height="17" viewBox="0 0 17 17" fill="none" xmlns="http://www.w3.org/2000/svg">
<g clip-path="url(#clip0_4_13)">
<path d="M9.60875 1.10894C9.60875 0.496626 9.11237 0.000244141 8.50005 0.000244141C7.88774 0.000244141 7.39136 0.496626 7.39136 1.10894V15.8033C7.39136 16.4157 7.88774 16.912 8.50005 16.912C9.11237 16.912 9.60875 16.4157 9.60875 15.8033V1.10894Z" fill="white"/>
<path d="M15.8971 9.55903C16.5062 9.55903 17 9.06523 17 8.45609C17 7.84695 16.5062 7.35315 15.8971 7.35315L1.10294 7.35315C0.493803 7.35315 0 7.84695 0 8.45609C0 9.06523 0.493803 9.55903 1.10294 9.55903H15.8971Z" fill="white"/>
</g>
<defs>
<clipPath id="clip0_4_13">
<rect width="17" height="17" fill="white"/>
</clipPath>
</defs>
</svg>
